<?xml version="1.0" encoding="UTF-8" standalone="no"?>
<!-- Created with Inkscape (http://www.inkscape.org/) -->

<svg
   width="185.58626mm"
   height="93.799347mm"
   viewBox="0 0 185.58626 93.799347"
   version="1.1"
   id="svg1"
   xml:space="preserve"
   xmlns="http://www.w3.org/2000/svg"
   xmlns:svg="http://www.w3.org/2000/svg"><defs
     id="defs1" /><g
     id="layer6"
     transform="translate(-258.66154,-161.97225)"><path
       id="path21"
       style="fill:#ffffff;fill-opacity:1;stroke-width:0.264583"
       d="m 266.21219,253.68876 c 15.68967,-15.62111 18.41601,-18.38188 30.16766,-30.16456 -0.0262,-0.0387 -0.0529,-0.0776 -0.0796,-0.11679 l -3.44734,2.21899 -24.70804,15.92719 0.009,-12.45971 -9.48935,5.9955 c 0.0427,11.79543 -0.003,15.58569 -0.003,16.60674 0,2.3051 0.48532,3.42067 1.72445,3.90416 1.38758,0.54141 3.26309,-0.30392 4.52478,-1.09554 0.43665,-0.27397 0.87008,-0.54577 1.3007,-0.81598 z" /><path
       id="path22"
       style="display:inline;fill:#b86afa;fill-opacity:1;stroke-width:0.264583"
       d="m 287.01918,211.18741 c 0,0 6.4066,7.96964 9.3605,12.33691 -11.76403,11.7951 -14.48366,14.54911 -30.21723,30.21383 0,0 23.00243,-14.28885 38.51508,-24.40921 1.2063,-0.78698 2.64223,-2.00217 2.61173,-3.44216 -0.0315,-1.48914 -1.6026,-2.62709 -2.84892,-3.44269 -5.20136,-3.40381 -11.14601,-7.24151 -17.42116,-11.25668 z" /><path
       id="path23"
       style="fill:#ffffff;fill-opacity:1;stroke-width:0.264583"
       d="m 266.34965,219.95904 c 15.68967,-15.62111 18.416,-18.38188 30.16766,-30.16457 -0.0262,-0.0387 -0.0529,-0.0776 -0.0796,-0.11678 l -3.44734,2.21898 -24.70804,15.92719 0.009,-12.4597 -9.48935,5.99498 c 0.0427,11.79543 -0.003,15.58621 -0.003,16.60726 0,2.3051 0.48532,3.42066 1.72445,3.90415 1.38758,0.54141 3.26309,-0.30392 4.52479,-1.09554 0.43664,-0.27396 0.87007,-0.54576 1.30069,-0.81597 z" /><path
       id="path24"
       style="display:inline;fill:#2ccdbd;fill-opacity:1;stroke-width:0.264583"
       d="m 287.15663,177.45762 c 0,0 6.4066,7.96964 9.36051,12.33691 -11.76404,11.7951 -14.48367,14.54911 -30.21724,30.21383 0,0 23.00243,-14.28885 38.51509,-24.40921 1.2063,-0.78698 2.64223,-2.00217 2.61173,-3.44216 -0.0315,-1.48914 -1.6026,-2.62709 -2.84892,-3.44269 -5.20136,-3.40381 -11.14602,-7.24151 -17.42117,-11.25668 z" /><text
       xml:space="preserve"
       style="font-style:normal;font-variant:normal;font-weight:bold;font-stretch:normal;font-size:29.3404px;line-height:0.2;font-family:'UD Digi Kyokasho NK';-inkscape-font-specification:'UD Digi Kyokasho NK, Bold';font-variant-ligatures:normal;font-variant-caps:normal;font-variant-numeric:normal;font-variant-east-asian:normal;text-align:start;letter-spacing:4.58685px;writing-mode:lr-tb;direction:ltr;text-anchor:start;fill:#2ccdbd;fill-opacity:1;stroke-width:2.44503"
       x="318.3237"
       y="220.87224"
       id="text24"><tspan
         id="tspan24"
         style="font-style:normal;font-variant:normal;font-weight:bold;font-stretch:normal;font-size:29.3404px;line-height:0.2;font-family:'UD Digi Kyokasho NK';-inkscape-font-specification:'UD Digi Kyokasho NK, Bold';font-variant-ligatures:normal;font-variant-caps:normal;font-variant-numeric:normal;font-variant-east-asian:normal;letter-spacing:4.58685px;fill:#2ccdbd;fill-opacity:1;stroke-width:2.44503"
         x="318.3237"
         y="220.87224">BLAYM</tspan></text><path
       id="path25"
       style="display:inline;fill:#b86afa;fill-opacity:1;stroke-width:0.264583"
       d="m 261.58405,161.97395 c -0.47095,0.0179 -0.89133,0.17652 -1.29295,0.47232 -1.19927,0.88332 -1.48704,2.92009 -1.49241,4.40955 -0.0248,6.88541 -0.0117,15.17791 0.032,23.86211 l 9.27437,-6.03322 -0.0889,-8.17366 6.41201,4.06021 8.82167,-5.73918 c -9.81974,-6.1609 -17.88543,-11.21758 -18.73735,-11.75639 -1.2176,-0.77009 -2.14359,-1.13149 -2.9285,-1.10174 z" /></g></svg>
